# Blender 4.5.0
# www.blender.org
mtllib brokenbuilding.mtl
g Cube.005_Cube.006
g top_Plane.001
v -5.499451 20.477104 -1.651303
v -5.499451 18.582661 -1.651303
v -6.244245 20.477104 -10.687876
v -19.755482 18.582661 -10.687875
v -6.244245 18.582661 -10.687876
v -6.247298 18.582661 -18.283823
v -6.247298 20.477104 -18.283823
v -18.170536 20.477104 -1.651303
v -18.170536 18.582661 -1.651303
v -18.170536 18.582661 -10.687875
v -18.170536 20.477104 -10.687875
v -6.244245 20.477104 -18.283823
v -6.244245 18.582661 -18.283823
v -19.755482 18.582661 -18.283823
v -18.170536 18.582661 -18.283823
v -18.170536 20.477104 -18.283823
v -19.755482 18.582661 -1.651303
v -19.755482 18.582661 -10.687874
v -18.170536 18.582661 -1.651303
v -18.170536 18.582661 -10.687874
vn -0.0000 -0.0000 -1.0000
vn -0.9966 -0.0000 0.0821
vn -0.0000 1.0000 -0.0000
vn -0.0000 -1.0000 -0.0000
vn -1.0000 -0.0000 0.0004
vt 0.111638 0.000000
vt 1.000000 0.000000
vt 1.000000 0.500000
vt 0.111638 0.500000
vt 0.111638 0.500000
vt 0.000000 0.500000
vt 0.111638 0.920289
vt 0.000000 0.920289
vt 1.000000 0.920289
vt 0.000000 0.000000
s 0
g off
g top_Material
usemtl Material
f 8/1/1 1/2/1 2/2/1 9/1/1
f 1/2/2 3/3/2 5/3/2 2/2/2
f 9/1/3 2/2/3 5/3/3 10/4/3
f 8/1/4 11/5/4 3/3/4 1/2/4
f 4/6/3 10/4/3 15/7/3 14/8/3
f 5/3/5 3/3/5 12/9/5 7/9/5 6/9/5 13/9/5
f 10/4/3 5/3/3 13/9/3 15/7/3
f 11/5/4 16/7/4 12/9/4 3/3/4
f 17/10/3 19/1/3 20/4/3 18/6/3
g Cube.001_Cube.059
v 1.469640 0.152797 -19.579344
v 1.469640 0.152797 -18.007961
v 1.469640 16.033878 -19.579342
v 1.469640 16.033878 -18.007959
v 15.863622 0.152797 -19.579344
v 15.863622 0.152797 -18.007961
v 15.863622 16.033878 -19.579342
v 15.863622 16.033878 -18.007959
vn -1.0000 -0.0000 -0.0000
vn -0.0000 1.0000 -0.0000
vn 1.0000 -0.0000 -0.0000
vn -0.0000 -1.0000 -0.0000
vn -0.0000 -0.0000 -1.0000
vn -0.0000 -0.0000 1.0000
vt 0.375000 0.000000
vt 0.625000 0.000000
vt 0.625000 0.603115
vt 0.375000 0.603115
vt 0.375000 0.250000
vt 0.625000 0.250000
vt 0.625000 0.796639
vt 0.375000 0.796639
vt 0.375000 0.146885
vt 0.625000 0.146885
vt 0.625000 0.750000
vt 0.375000 0.750000
vt 0.375000 0.453361
vt 0.625000 0.453361
vt 0.625000 1.000000
vt 0.375000 1.000000
vt 0.125000 0.146885
vt 0.671639 0.146885
vt 0.671639 0.750000
vt 0.125000 0.750000
vt 0.328361 0.146885
vt 0.875000 0.146885
vt 0.875000 0.750000
vt 0.328361 0.750000
s 0
g off
g Cube.001_Material
usemtl Material
f 21/11/6 22/12/6 24/13/6 23/14/6
f 23/15/7 24/16/7 28/17/7 27/18/7
f 27/19/8 28/20/8 26/21/8 25/22/8
f 25/23/9 26/24/9 22/25/9 21/26/9
f 23/27/10 27/28/10 25/29/10 21/30/10
f 28/31/11 24/32/11 22/33/11 26/34/11
g Cube.002_Cube.060
v -18.290287 0.152797 -19.579344
v -18.290287 0.152797 -18.007961
v -18.290287 38.890915 -19.579342
v -18.290287 38.890915 -18.007959
v -0.361638 0.152797 -19.579344
v -0.361638 0.152797 -18.007961
v -0.361638 38.890915 -19.579342
v -0.361638 38.890915 -18.007959
vn -1.0000 -0.0000 -0.0000
vn -0.0000 1.0000 -0.0000
vn 1.0000 -0.0000 -0.0000
vn -0.0000 -1.0000 -0.0000
vn -0.0000 -0.0000 -1.0000
vn -0.0000 -0.0000 1.0000
vt 0.375000 0.000000
vt 0.625000 0.000000
vt 0.625000 1.471155
vt 0.375000 1.471155
vt 0.375000 0.250000
vt 0.625000 0.250000
vt 0.625000 0.930875
vt 0.375000 0.930875
vt 0.375000 -0.721155
vt 0.625000 -0.721155
vt 0.625000 0.750000
vt 0.375000 0.750000
vt 0.375000 0.319125
vt 0.625000 0.319125
vt 0.625000 1.000000
vt 0.375000 1.000000
vt 0.125000 -0.721155
vt 0.805875 -0.721155
vt 0.805875 0.750000
vt 0.125000 0.750000
vt 0.194125 -0.721155
vt 0.875000 -0.721155
vt 0.875000 0.750000
vt 0.194125 0.750000
s 0
g off
g Cube.002_Material
usemtl Material
f 29/35/12 30/36/12 32/37/12 31/38/12
f 31/39/13 32/40/13 36/41/13 35/42/13
f 35/43/14 36/44/14 34/45/14 33/46/14
f 33/47/15 34/48/15 30/49/15 29/50/15
f 31/51/16 35/52/16 33/53/16 29/54/16
f 36/55/17 32/56/17 30/57/17 34/58/17
g Cube.003_Cube.061
v -19.942797 0.152797 -0.910897
v -18.543268 0.152797 -0.910897
v -19.942797 38.890915 -0.910897
v -18.543266 38.890915 -0.910897
v -19.942799 0.152797 -18.068975
v -18.543268 0.152797 -18.068975
v -19.942799 38.890915 -18.068975
v -18.543268 38.890915 -18.068975
vn -0.0000 -0.0000 1.0000
vn -0.0000 1.0000 -0.0000
vn -0.0000 -0.0000 -1.0000
vn -0.0000 -1.0000 -0.0000
vn -1.0000 -0.0000 -0.0000
vn 1.0000 -0.0000 -0.0000
vt 0.375000 0.000000
vt 0.625000 0.000000
vt 0.625000 1.471155
vt 0.375000 1.471155
vt 0.375000 0.250000
vt 0.625000 0.250000
vt 0.625000 0.930875
vt 0.375000 0.930875
vt 0.375000 -0.721155
vt 0.625000 -0.721155
vt 0.625000 0.750000
vt 0.375000 0.750000
vt 0.375000 0.319125
vt 0.625000 0.319125
vt 0.625000 1.000000
vt 0.375000 1.000000
vt 0.125000 -0.721155
vt 0.805875 -0.721155
vt 0.805875 0.750000
vt 0.125000 0.750000
vt 0.194125 -0.721155
vt 0.875000 -0.721155
vt 0.875000 0.750000
vt 0.194125 0.750000
s 0
g off
g Cube.003_Material
usemtl Material
f 37/59/18 38/60/18 40/61/18 39/62/18
f 39/63/19 40/64/19 44/65/19 43/66/19
f 43/67/20 44/68/20 42/69/20 41/70/20
f 41/71/21 42/72/21 38/73/21 37/74/21
f 39/75/22 43/76/22 41/77/22 37/78/22
f 44/79/23 40/80/23 38/81/23 42/82/23
g Cube.006_Cube.062
v 18.515690 0.076156 12.566749
v 20.087074 0.076156 12.566749
v 18.515692 7.179549 12.566749
v 20.087074 7.179549 12.566749
v 18.515690 0.076156 -1.827233
v 20.087072 0.076156 -1.827233
v 18.515690 7.179549 -1.827233
v 20.087072 7.179549 -1.827233
v 18.515692 3.627853 12.566749
v 20.087074 3.627852 12.566749
v 18.515690 3.627852 -1.827233
v 20.087072 3.627853 -1.827233
v 18.515692 3.627853 18.087639
v 18.515690 0.076156 18.087639
v 20.087074 0.076156 18.087639
v 20.087074 3.627852 18.087639
vn -0.0000 -0.0000 1.0000
vn -0.0000 1.0000 -0.0000
vn -0.0000 -0.0000 -1.0000
vn -0.0000 -1.0000 -0.0000
vn -1.0000 -0.0000 -0.0000
vn 1.0000 -0.0000 -0.0000
vt 0.375000 0.134883
vt 0.625000 0.134883
vt 0.625000 0.269765
vt 0.375000 0.269765
vt 0.375000 0.250000
vt 0.625000 0.250000
vt 0.625000 0.796639
vt 0.375000 0.796639
vt 0.375000 0.615117
vt 0.625000 0.615117
vt 0.625000 0.750000
vt 0.375000 0.750000
vt 0.375000 0.453361
vt 0.625000 0.453361
vt 0.625000 1.000000
vt 0.375000 1.000000
vt 0.125000 0.615117
vt 0.671639 0.615118
vt 0.671639 0.750000
vt 0.125000 0.750000
vt 0.328361 0.615118
vt 0.875000 0.615117
vt 0.875000 0.750000
vt 0.328361 0.750000
vt 0.328361 0.480235
vt 0.875000 0.480235
vt 0.125000 0.480235
vt 0.671639 0.480235
vt 0.375000 0.480235
vt 0.625000 0.480235
vt 1.084666 0.615117
vt 1.084666 0.750000
vt 0.375000 0.000000
vt 0.625000 0.000000
vt -0.084667 0.750000
vt -0.084667 0.615117
vt 0.625000 1.209667
vt 0.375000 1.209666
vt 0.375000 0.134883
vt 0.625000 0.134883
s 0
g off
g Cube.006_Material
usemtl Material
f 53/83/24 54/84/24 48/85/24 47/86/24
f 47/87/25 48/88/25 52/89/25 51/90/25
f 55/91/26 56/92/26 50/93/26 49/94/26
f 49/95/27 50/96/27 46/97/27 45/98/27
f 53/99/28 55/100/28 49/101/28 45/102/28
f 56/103/29 54/104/29 46/105/29 50/106/29
f 52/107/29 48/108/29 54/104/29 56/103/29
f 47/109/28 51/110/28 55/100/28 53/99/28
f 51/111/26 52/112/26 56/92/26 55/91/26
f 46/105/29 54/104/29 60/113/29 59/114/29
f 58/115/24 59/116/24 60/84/24 57/83/24
f 53/99/28 45/102/28 58/117/28 57/118/28
f 45/98/27 46/97/27 59/119/27 58/120/27
f 54/84/25 53/83/25 57/121/25 60/122/25
g Cube.004_Cube.063
v -17.897331 -0.045091 18.218393
v -17.897331 -0.045091 19.789776
v -17.897331 11.754047 18.218395
v -17.897331 11.754047 19.789778
v -11.666677 -0.045091 18.218393
v -11.666677 -0.045091 19.789776
v -11.666677 11.754047 18.218395
v -11.666677 11.754047 19.789778
v -17.897331 5.854478 18.218393
v -17.897331 5.854478 19.789778
v -11.666677 5.854478 18.218393
v -11.666677 5.854478 19.789778
v -0.233922 5.854478 19.789778
v -0.233922 -0.045091 19.789776
v -0.233922 -0.045091 18.218393
v -0.233922 5.854478 18.218393
vn -1.0000 -0.0000 -0.0000
vn -0.0000 1.0000 -0.0000
vn -0.0000 -0.0000 -1.0000
vn -0.0000 -1.0000 -0.0000
vn -0.0000 -0.0000 1.0000
vn 1.0000 -0.0000 -0.0000
vt 0.375000 0.224048
vt 0.625000 0.224048
vt 0.625000 0.448095
vt 0.375000 0.448095
vt 0.375000 0.250000
vt 0.625000 0.250000
vt 0.625000 0.486621
vt 0.375000 0.486621
vt 0.361621 0.750000
vt 0.361621 0.525953
vt 0.795802 0.525953
vt 0.795802 0.750000
vt 0.375000 0.763379
vt 0.625000 0.763379
vt 0.625000 1.000000
vt 0.375000 1.000000
vt 0.125000 0.525952
vt 0.125000 0.750000
vt 0.638379 0.525953
vt 0.875000 0.525952
vt 0.875000 0.750000
vt 0.638379 0.750000
vt 0.638379 0.301905
vt 0.875000 0.301905
vt 0.125000 0.301905
vt 0.361621 0.301905
vt 0.375000 0.301905
vt 0.625000 0.301905
vt 0.625000 0.525952
vt 0.375000 0.525952
vt 0.375000 0.000000
vt 0.625000 0.000000
vt 0.625000 0.750000
vt 0.375000 0.750000
vt 0.204198 0.750000
vt 0.204198 0.525953
vt 0.375000 0.329198
vt 0.625000 0.329198
s 0
g off
g Cube.004_Material
usemtl Material
f 69/123/30 70/124/30 64/125/30 63/126/30
f 63/127/31 64/128/31 68/129/31 67/130/31
f 65/131/32 71/132/32 76/133/32 75/134/32
f 65/135/33 66/136/33 62/137/33 61/138/33
f 69/139/32 71/132/32 65/131/32 61/140/32
f 72/141/34 70/142/34 62/143/34 66/144/34
f 68/145/34 64/146/34 70/142/34 72/141/34
f 63/147/32 67/148/32 71/132/32 69/139/32
f 67/149/35 68/150/35 72/151/35 71/152/35
f 61/153/30 62/154/30 70/124/30 69/123/30
f 76/152/35 73/151/35 74/155/35 75/156/35
f 72/141/34 66/144/34 74/157/34 73/158/34
f 66/136/33 65/135/33 75/159/33 74/160/33
f 71/152/31 72/151/31 73/151/31 76/152/31
g Cube.007_Cube.064
v -18.429504 -0.045091 0.955794
v -20.000887 -0.045091 0.955794
v -18.429504 11.754047 0.955794
v -20.000889 11.754047 0.955794
v -18.429504 -0.045091 7.186448
v -20.000889 -0.045091 7.186448
v -18.429506 11.754047 7.186448
v -20.000889 11.754047 7.186448
v -18.429504 5.854478 0.955794
v -20.000887 5.854478 0.955794
v -18.429504 5.854478 7.186448
v -20.000889 5.854478 7.186448
v -20.000889 5.854478 10.165236
v -20.000889 -0.045091 10.165236
v -18.429506 -0.045091 10.165236
v -18.429506 5.854478 10.165236
vn -0.0000 -0.0000 -1.0000
vn -0.0000 1.0000 -0.0000
vn 1.0000 -0.0000 -0.0000
vn -0.0000 -1.0000 -0.0000
vn -1.0000 -0.0000 -0.0000
vn -0.0000 -0.0000 1.0000
vt 0.375000 0.224048
vt 0.625000 0.224048
vt 0.625000 0.448095
vt 0.375000 0.448095
vt 0.375000 0.250000
vt 0.625000 0.250000
vt 0.625000 0.486621
vt 0.375000 0.486621
vt 0.361621 0.750000
vt 0.361621 0.525953
vt 0.474746 0.525953
vt 0.474746 0.750000
vt 0.375000 0.763379
vt 0.625000 0.763379
vt 0.625000 1.000000
vt 0.375000 1.000000
vt 0.125000 0.525952
vt 0.125000 0.750000
vt 0.638379 0.525953
vt 0.875000 0.525952
vt 0.875000 0.750000
vt 0.638379 0.750000
vt 0.638379 0.301905
vt 0.875000 0.301905
vt 0.125000 0.301905
vt 0.361621 0.301905
vt 0.375000 0.301905
vt 0.625000 0.301905
vt 0.625000 0.525952
vt 0.375000 0.525952
vt 0.375000 0.000000
vt 0.625000 0.000000
vt 0.625000 0.750000
vt 0.375000 0.750000
vt 0.525254 0.750000
vt 0.525254 0.525953
vt 0.375000 0.650254
vt 0.625000 0.650254
s 0
g off
g Cube.007_Material
usemtl Material
f 85/161/36 86/162/36 80/163/36 79/164/36
f 79/165/37 80/166/37 84/167/37 83/168/37
f 81/169/38 87/170/38 92/171/38 91/172/38
f 81/173/39 82/174/39 78/175/39 77/176/39
f 85/177/38 87/170/38 81/169/38 77/178/38
f 88/179/40 86/180/40 78/181/40 82/182/40
f 84/183/40 80/184/40 86/180/40 88/179/40
f 79/185/38 83/186/38 87/170/38 85/177/38
f 83/187/41 84/188/41 88/189/41 87/190/41
f 77/191/36 78/192/36 86/162/36 85/161/36
f 92/190/41 89/189/41 90/193/41 91/194/41
f 88/179/40 82/182/40 90/195/40 89/196/40
f 82/174/39 81/173/39 91/197/39 90/198/39
f 87/190/37 88/189/37 89/189/37 92/190/37
g Cube.008_Cube.067
v 18.137770 0.039601 -17.914886
v 18.137770 16.603064 -17.914886
v 18.137770 0.039601 -19.914886
v 18.137770 16.603064 -19.914886
v 20.137770 0.039601 -17.914886
v 20.137770 16.603064 -17.914886
v 20.137770 0.039601 -19.914886
v 20.137770 16.603064 -19.914886
v 18.137770 7.734759 -17.914886
v 18.137770 7.734759 -19.914886
v 20.137770 7.734759 -19.914886
v 20.137770 7.734759 -17.914886
v 19.971081 -0.017585 -1.700294
v 19.971081 8.148108 -1.700294
v 17.971081 -0.017585 -1.700294
v 17.971081 8.148108 -1.700294
v 19.971081 -0.017585 -3.700294
v 19.971081 8.148108 -3.700294
v 17.971081 -0.017585 -3.700294
v 17.971081 8.148108 -3.700294
v 19.971081 4.065261 -1.700294
v 17.971081 4.065262 -1.700294
v 17.971081 4.065262 -3.700294
v 19.971081 4.065262 -3.700294
v 19.971081 5.944118 -1.700294
v 17.971081 5.944118 -1.700294
v 17.968575 0.039601 19.965412
v 17.968575 5.122751 19.965412
v 17.968575 0.039601 17.965412
v 17.968575 5.122751 17.965412
v 19.968575 0.039601 19.965412
v 19.968575 5.122751 19.965412
v 19.968575 0.039601 17.965412
v 19.968575 5.122751 17.965412
v 17.968575 3.585985 19.965412
v 17.968575 3.585985 17.965412
v 19.968575 3.585985 17.965412
v 19.968575 3.585985 19.965412
v 17.968575 1.812793 17.965412
v 19.968575 1.812793 17.965412
v 19.968575 1.812793 19.965412
v 17.968575 1.812793 19.965412
v -0.312790 -0.017585 19.965412
v -0.312790 8.148108 19.965412
v -0.312790 -0.017585 17.965412
v -0.312790 8.148108 17.965412
v 1.687210 -0.017585 19.965412
v 1.687210 8.148108 19.965412
v 1.687210 -0.017585 17.965412
v 1.687210 8.148108 17.965412
v -0.312790 4.065261 19.965412
v -0.312790 4.065262 17.965412
v 1.687210 4.065262 17.965412
v 1.687210 4.065262 19.965412
v -0.312790 5.944118 19.965412
v -0.312790 5.944118 17.965412
v -20.107552 -0.017585 19.965412
v -20.107552 13.982093 19.965412
v -20.107552 -0.017585 17.965412
v -20.107552 13.982093 17.965412
v -18.107552 -0.017585 19.965412
v -18.107552 13.982093 19.965412
v -18.107552 -0.017585 17.965412
v -18.107552 13.982093 17.965412
v -20.107552 4.065261 19.965412
v -20.107552 4.065262 17.965412
v -18.107552 4.065262 17.965412
v -18.107552 4.065262 19.965412
v -20.107552 5.944118 19.965412
v -20.107552 5.944118 17.965412
v -0.312790 -0.017585 -17.665825
v -0.312790 41.847790 -17.665825
v -0.312790 -0.017585 -19.665825
v -0.312790 41.847790 -19.665825
v 1.687210 -0.017585 -17.665825
v 1.687210 41.847790 -17.665825
v 1.687210 -0.017585 -19.665825
v 1.687210 41.847790 -19.665825
v -0.312790 4.065261 -17.665825
v -0.312790 4.065262 -19.665825
v 1.687210 4.065262 -19.665825
v 1.687210 4.065262 -17.665825
v -0.312790 5.944118 -17.665825
v -0.312790 5.944118 -19.665825
v -20.062366 -0.017585 -17.665825
v -20.062366 40.737740 -17.665825
v -20.062366 -0.017585 -19.665825
v -20.062366 40.737740 -19.665825
v -18.062366 -0.017585 -17.665825
v -18.062366 40.737740 -17.665825
v -18.062366 -0.017585 -19.665825
v -18.062366 40.737740 -19.665825
v -20.062366 4.065261 -17.665825
v -20.062366 4.065262 -19.665825
v -18.062366 4.065262 -19.665825
v -18.062366 4.065262 -17.665825
v -20.062366 -0.130225 -17.665825
v -20.062366 -0.130225 -19.665825
v -0.312790 -0.036354 -17.665825
v -0.312790 -0.036353 -19.665825
v -20.107552 0.069474 19.965412
v -20.107552 0.069475 17.965412
v -20.226246 -0.017585 0.874510
v -20.226246 44.415257 0.874510
v -20.226246 -0.017585 -1.125490
v -20.226246 44.415257 -1.125490
v -18.226246 -0.017585 0.874510
v -18.226246 44.415257 0.874510
v -18.226246 -0.017585 -1.125490
v -18.226246 44.415257 -1.125490
v -20.226246 4.065261 0.874510
v -20.226246 4.065262 -1.125490
v -18.226246 4.065262 -1.125490
v -18.226246 4.065262 0.874510
v -20.226246 -0.130225 0.874510
v -20.226246 -0.130225 -1.125490
v 18.137770 0.012427 -17.914886
v 18.137770 0.012427 -19.914886
v -9.328671 0.039601 -2.225277
v -9.328671 18.711618 -2.225277
v -9.328671 0.039601 -3.365697
v -9.328671 18.711618 -3.365697
v -7.328671 0.039601 -2.225277
v -7.328671 18.711618 -2.225277
v -7.328671 0.039601 -3.365697
v -7.328671 18.711618 -3.365697
v -9.328671 7.734759 -2.225277
v -9.328671 7.734759 -3.365697
v -7.328671 7.734759 -3.365697
v -7.328671 7.734759 -2.225277
v -9.328671 0.012427 -2.225277
v -9.328671 0.076142 -2.225277
v -9.328671 0.076142 -3.365697
vn -1.0000 -0.0000 -0.0000
vn -0.0000 -0.0000 -1.0000
vn 1.0000 -0.0000 -0.0000
vn -0.0000 -0.0000 1.0000
vn -0.0000 -1.0000 -0.0000
vn -0.0000 1.0000 -0.0000
vt 0.500000 0.000000
vt 0.644057 0.000000
vt 0.644057 0.250000
vt 0.500000 0.250000
vt 0.500000 0.271149
vt 0.644057 0.271149
vt 0.644056 0.521149
vt 0.500000 0.521149
vt 0.500000 0.500000
vt 0.644057 0.500000
vt 0.644057 0.750000
vt 0.500000 0.750000
vt 0.500000 0.728851
vt 0.644057 0.728851
vt 0.644057 0.978851
vt 0.500000 0.978851
vt 0.146149 0.500000
vt 0.396149 0.500000
vt 0.396149 0.750000
vt 0.146149 0.750000
vt 0.603851 0.500000
vt 0.853851 0.500000
vt 0.853851 0.750000
vt 0.603851 0.750000
vt 0.375000 0.728851
vt 0.500000 0.728851
vt 0.375000 0.978851
vt 0.375000 0.500000
vt 0.375000 0.750000
vt 0.375000 0.271149
vt 0.500000 0.271149
vt 0.500000 0.521149
vt 0.375000 0.521149
vt 0.625000 0.000000
vt 0.625000 0.250000
vt 0.625000 0.500000
vt 0.625000 0.750000
vt 0.500000 0.750000
vt 0.625000 1.000000
vt 0.500000 1.000000
vt 0.125000 0.500000
vt 0.125000 0.750000
vt 0.875000 0.500000
vt 0.875000 0.750000
vt 0.375000 1.000000
vt 0.375000 0.250000
vt 0.549419 0.000000
vt 0.549419 0.250000
vt 0.549419 0.500000
vt 0.549419 0.750000
vt 0.549419 1.000000
vt 0.462209 0.750000
vt 0.462209 1.000000
vt 0.462209 0.500000
vt 0.462209 0.000000
vt 0.462209 0.250000
vt 0.375000 0.000000
vt 0.803613 0.000000
vt 0.803613 0.250000
vt 0.500000 -2.224345
vt 0.803613 -2.224345
vt 0.803613 -1.974346
vt 0.500000 -1.974345
vt 0.803613 0.500000
vt 0.803613 0.750000
vt 0.500000 3.224344
vt 0.803613 3.224347
vt 0.803612 3.474345
vt 0.500000 3.474343
vt -2.349345 0.500000
vt -2.099345 0.500000
vt -2.099345 0.750000
vt -2.349344 0.749999
vt 3.099344 0.500000
vt 3.349346 0.500000
vt 3.349347 0.750000
vt 3.099344 0.750000
vt 0.375000 3.224346
vt 0.500000 3.224345
vt 0.500000 3.474346
vt 0.375000 3.474346
vt 0.375000 -2.224345
vt 0.500000 -2.224345
vt 0.500000 -1.974345
vt 0.375000 -1.974345
vt 0.500000 4.703915
vt 1.656745 4.703822
vt 1.656745 4.953820
vt 0.500000 4.953912
vt 1.656746 0.250000
vt 1.656746 0.500000
vt 0.500000 -4.203905
vt 1.656748 -4.203903
vt 1.656749 -3.953903
vt 0.500000 -3.953905
vt 1.656746 0.750000
vt 1.656746 0.999999
vt 0.125000 -4.203907
vt 0.375000 -4.203907
vt 0.375000 -3.953902
vt 0.125000 -3.953902
vt 0.625000 -4.203907
vt 0.875000 -4.203907
vt 0.875000 -3.953902
vt 0.625000 -3.953902
vt 0.375000 -4.203906
vt 0.500000 -4.203906
vt 0.500000 -3.953907
vt 0.375000 -3.953907
vt 0.500000 4.703925
vt 0.500000 4.953935
vt 0.500000 4.953884
vt 0.500000 4.703884
vt 1.622760 4.703825
vt 1.622760 4.953824
vt 0.500000 -2.218697
vt 1.622761 -2.218698
vt 1.622761 -1.968697
vt 0.500000 -1.968697
vt 1.622763 -4.203904
vt 1.622763 -3.953904
vt 0.500000 3.218695
vt 1.622761 3.218693
vt 1.622761 3.468693
vt 0.500000 3.468695
vt -2.343696 -4.203905
vt -2.093698 -4.203909
vt -2.093698 -3.953903
vt -2.343696 -3.953899
vt 3.093699 -4.203909
vt 3.343699 -4.203907
vt 3.343699 -3.953901
vt 3.093699 -3.953903
vt 0.375000 3.218697
vt 0.500000 3.218698
vt 0.500000 3.468699
vt 0.375000 3.468696
vt 0.375000 -2.218696
vt 0.500000 -2.218696
vt 0.500000 -1.968697
vt 0.375000 -1.968697
vt 0.371552 4.953923
vt 0.371552 4.703925
vt 0.374426 4.703924
vt 0.374426 4.953923
vt 0.377665 0.000000
vt 0.377665 0.250000
vt 0.500002 2.386395
vt 1.735349 2.386291
vt 1.735349 2.636286
vt 0.500002 2.636391
vt 0.500000 -2.239182
vt 1.735352 -2.239182
vt 1.735352 -1.989182
vt 0.500000 -1.989182
vt 0.500001 -1.886362
vt 1.735356 -1.886365
vt 1.735356 -1.636365
vt 0.500001 -1.636364
vt 0.500000 3.239180
vt 1.735352 3.239178
vt 1.735351 3.489177
vt 0.500000 3.489180
vt -2.364180 -1.886311
vt -2.114180 -1.886312
vt -2.114179 -1.636305
vt -2.364178 -1.636305
vt 3.114184 -1.886314
vt 3.364186 -1.886313
vt 3.364184 -1.636307
vt 3.114185 -1.636307
vt 0.375000 3.239182
vt 0.500000 3.239182
vt 0.500000 3.489183
vt 0.375000 3.489181
vt 0.375000 -1.886372
vt 0.500000 -1.886372
vt 0.500000 -1.636379
vt 0.375000 -1.636379
vt 0.375000 -2.239181
vt 0.500000 -2.239181
vt 0.500000 -1.989182
vt 0.375000 -1.989182
vt 0.500004 2.386395
vt 0.500004 2.636395
vt 0.371556 2.636404
vt 0.371556 2.386400
vt 0.374559 0.250000
vt 0.374559 0.000000
vt 0.678308 0.000000
vt 0.678308 0.142553
vt 0.500000 0.142553
vt 0.500000 1.507252
vt 0.678308 1.507252
vt 0.678308 1.757252
vt 0.500000 1.757252
vt 0.500000 0.607447
vt 0.678308 0.607447
vt 0.678308 0.750000
vt 0.500000 -0.507252
vt 0.678308 -0.507252
vt 0.678308 -0.257252
vt 0.500000 -0.257252
vt 1.382252 0.607447
vt 1.632252 0.607447
vt 1.632252 0.750000
vt 1.382252 0.750000
vt -0.632252 0.607447
vt -0.382252 0.607447
vt -0.382252 0.750000
vt -0.632252 0.750000
vt 0.375000 -0.507252
vt 0.500000 -0.507252
vt 0.500000 -0.257252
vt 0.375000 -0.257252
vt 0.375000 0.607447
vt 0.500000 0.607447
vt 0.375000 1.507252
vt 0.500000 1.507252
vt 0.500000 1.757252
vt 0.375000 1.757252
vt 0.375594 0.142553
vt 0.375594 0.000000
s 0
g off
g Cube.008_Material.001
usemtl Material.001
f 101/199/42 94/200/42 96/201/42 102/202/42
f 102/203/43 96/204/43 100/205/43 103/206/43
f 103/207/44 100/208/44 98/209/44 104/210/44
f 104/211/45 98/212/45 94/213/45 101/214/45
f 95/215/46 99/216/46 97/217/46 93/218/46
f 100/219/47 96/220/47 94/221/47 98/222/47
f 97/223/45 104/224/45 101/214/45 93/225/45
f 99/226/44 103/207/44 104/210/44 97/227/44
f 95/228/43 102/229/43 103/230/43 99/231/43
f 113/199/45 106/232/45 108/233/45 114/202/45
f 114/202/42 108/233/42 112/234/42 115/207/42
f 115/207/43 112/234/43 110/235/43 116/236/43
f 116/236/44 110/235/44 106/237/44 113/238/44
f 107/239/46 111/226/46 109/227/46 105/240/46
f 112/234/47 108/241/47 106/242/47 110/235/47
f 109/227/44 116/236/44 113/238/44 105/243/44
f 111/226/43 115/207/43 116/236/43 109/227/43
f 107/244/42 114/202/42 115/207/42 111/226/42
f 113/199/43 114/202/43 118/202/43 117/199/43
f 127/245/42 120/232/42 122/233/42 128/246/42
f 128/246/43 122/233/43 126/234/43 129/247/43
f 129/247/44 126/234/44 124/235/44 130/248/44
f 130/248/45 124/235/45 120/237/45 127/249/45
f 121/239/46 125/226/46 123/227/46 119/240/46
f 126/234/47 122/241/47 120/242/47 124/235/47
f 133/250/45 130/248/45 127/249/45 134/251/45
f 132/252/44 129/247/44 130/248/44 133/250/44
f 134/253/42 127/245/42 128/246/42 131/254/42
f 119/255/42 134/253/42 131/254/42 121/244/42
f 125/226/44 132/252/44 133/250/44 123/227/44
f 123/227/45 133/250/45 134/251/45 119/243/45
f 143/199/42 136/232/42 138/233/42 144/202/42
f 144/202/43 138/233/43 142/234/43 145/207/43
f 145/207/44 142/234/44 140/235/44 146/236/44
f 146/236/45 140/235/45 136/237/45 143/238/45
f 137/239/46 141/226/46 139/227/46 135/240/46
f 142/234/47 138/241/47 136/242/47 140/235/47
f 139/227/45 146/236/45 143/238/45 135/243/45
f 141/226/44 145/207/44 146/236/44 139/227/44
f 137/244/43 144/202/43 145/207/43 141/226/43
f 143/199/44 144/202/44 148/202/44 147/199/44
f 157/199/42 150/256/42 152/257/42 158/202/42
f 158/258/43 152/259/43 156/260/43 159/261/43
f 159/207/44 156/262/44 154/263/44 160/236/44
f 160/264/45 154/265/45 150/266/45 157/267/45
f 151/268/46 155/269/46 153/270/46 149/271/46
f 156/272/47 152/273/47 150/274/47 154/275/47
f 153/276/45 160/277/45 157/278/45 149/279/45
f 155/226/44 159/207/44 160/236/44 153/227/44
f 151/280/43 158/281/43 159/282/43 155/283/43
f 157/199/44 158/202/44 162/202/44 161/199/44
f 171/284/42 164/285/42 166/286/42 172/287/42
f 172/202/43 166/288/43 170/289/43 173/207/43
f 173/290/44 170/291/44 168/292/44 174/293/44
f 174/236/45 168/294/45 164/295/45 171/238/45
f 165/296/46 169/297/46 167/298/46 163/299/46
f 170/300/47 166/301/47 164/302/47 168/303/47
f 167/227/45 174/236/45 171/238/45 163/243/45
f 169/304/44 173/305/44 174/306/44 167/307/44
f 165/244/43 172/202/43 173/207/43 169/226/43
f 171/308/44 172/309/44 176/310/44 175/311/44
f 185/284/42 178/312/42 180/313/42 186/287/42
f 186/314/43 180/315/43 184/316/43 187/317/43
f 187/290/44 184/318/44 182/319/44 188/293/44
f 188/320/45 182/321/45 178/322/45 185/323/45
f 179/324/46 183/325/46 181/326/46 177/327/46
f 184/328/47 180/329/47 178/330/47 182/331/47
f 181/332/45 188/333/45 185/334/45 177/335/45
f 183/304/44 187/305/44 188/306/44 181/307/44
f 179/336/43 186/337/43 187/338/43 183/339/43
f 185/284/42 186/287/42 190/340/42 189/341/42
f 172/287/44 171/284/44 191/342/44 192/343/44
f 158/202/44 157/199/44 193/344/44 194/345/44
f 203/346/42 196/347/42 198/348/42 204/349/42
f 204/350/43 198/351/43 202/352/43 205/353/43
f 205/354/44 202/355/44 200/356/44 206/357/44
f 206/358/45 200/359/45 196/360/45 203/361/45
f 197/362/46 201/363/46 199/364/46 195/365/46
f 202/366/47 198/367/47 196/368/47 200/369/47
f 199/370/45 206/371/45 203/372/45 195/373/45
f 201/374/44 205/375/44 206/376/44 199/377/44
f 197/378/43 204/379/43 205/380/43 201/381/43
f 203/382/42 204/383/42 208/384/42 207/385/42
f 101/199/42 102/202/42 210/386/42 209/387/42
f 219/199/42 212/388/42 214/389/42 220/390/42
f 220/391/43 214/392/43 218/393/43 221/394/43
f 221/395/44 218/396/44 216/397/44 222/210/44
f 222/398/45 216/399/45 212/400/45 219/401/45
f 213/402/46 217/403/46 215/404/46 211/405/46
f 218/406/47 214/407/47 212/408/47 216/409/47
f 215/410/45 222/411/45 219/412/45 211/413/45
f 217/414/44 221/415/44 222/210/44 215/227/44
f 213/416/43 220/417/43 221/418/43 217/419/43
f 219/199/42 220/390/42 225/420/42 224/421/42
l 219 223
g Cube.009_Cube.069
v 18.353342 0.152797 -3.683132
v 19.924726 0.152797 -3.683132
v 18.353344 13.054654 -3.683132
v 19.924726 13.054654 -3.683132
v 18.353342 0.152797 -18.077114
v 19.924725 0.152797 -18.077114
v 18.353342 13.054654 -18.077114
v 19.924725 13.054654 -18.077114
vn -0.0000 -0.0000 1.0000
vn -0.0000 1.0000 -0.0000
vn -0.0000 -0.0000 -1.0000
vn -0.0000 -1.0000 -0.0000
vn -1.0000 -0.0000 -0.0000
vn 1.0000 -0.0000 -0.0000
vt 0.375000 0.000000
vt 0.625000 0.000000
vt 0.625000 0.489973
vt 0.375000 0.489973
vt 0.375000 0.250000
vt 0.625000 0.250000
vt 0.625000 0.796639
vt 0.375000 0.796639
vt 0.375000 0.260027
vt 0.625000 0.260027
vt 0.625000 0.750000
vt 0.375000 0.750000
vt 0.375000 0.453361
vt 0.625000 0.453361
vt 0.625000 1.000000
vt 0.375000 1.000000
vt 0.125000 0.260027
vt 0.671639 0.260027
vt 0.671639 0.750000
vt 0.125000 0.750000
vt 0.328361 0.260027
vt 0.875000 0.260027
vt 0.875000 0.750000
vt 0.328361 0.750000
s 0
g off
g Cube.009_Material
usemtl Material
f 226/422/48 227/423/48 229/424/48 228/425/48
f 228/426/49 229/427/49 233/428/49 232/429/49
f 232/430/50 233/431/50 231/432/50 230/433/50
f 230/434/51 231/435/51 227/436/51 226/437/51
f 228/438/52 232/439/52 230/440/52 226/441/52
f 233/442/53 229/443/53 227/444/53 231/445/53
g Cube.010_Cube.070
v -18.142202 11.628325 18.128342
v -19.713585 11.628325 18.128342
v -18.142200 -0.170814 18.128342
v -19.713583 -0.170814 18.128342
v -18.142202 11.628325 13.980923
v -19.713585 11.628325 13.980923
v -18.142200 -0.170814 13.980923
v -19.713583 -0.170814 13.980923
v -18.142200 5.728756 18.128342
v -19.713583 5.728756 18.128342
v -18.142200 5.728756 13.980923
v -19.713583 5.728756 13.980923
v -19.713585 5.728756 11.998100
v -19.713585 11.628325 11.998100
v -18.142202 11.628325 11.998100
v -18.142200 5.728756 11.998100
vn -0.0000 -0.0000 1.0000
vn -0.0000 -1.0000 -0.0000
vn 1.0000 -0.0000 -0.0000
vn -0.0000 1.0000 -0.0000
vn -1.0000 -0.0000 -0.0000
vn -0.0000 -0.0000 -1.0000
vt 0.375000 0.224048
vt 0.625000 0.224048
vt 0.625000 0.448095
vt 0.375000 0.448095
vt 0.375000 0.250000
vt 0.625000 0.250000
vt 0.625000 0.486621
vt 0.375000 0.486621
vt 0.361621 0.750000
vt 0.361621 0.525953
vt 0.474746 0.525953
vt 0.474746 0.750000
vt 0.375000 0.763379
vt 0.625000 0.763379
vt 0.625000 1.000000
vt 0.375000 1.000000
vt 0.125000 0.525952
vt 0.125000 0.750000
vt 0.638379 0.525953
vt 0.875000 0.525952
vt 0.875000 0.750000
vt 0.638379 0.750000
vt 0.638379 0.301905
vt 0.875000 0.301905
vt 0.125000 0.301905
vt 0.361621 0.301905
vt 0.375000 0.301905
vt 0.625000 0.301905
vt 0.625000 0.525952
vt 0.375000 0.525952
vt 0.375000 0.000000
vt 0.625000 0.000000
vt 0.625000 0.750000
vt 0.375000 0.750000
vt 0.525254 0.750000
vt 0.525254 0.525953
vt 0.375000 0.650254
vt 0.625000 0.650254
s 0
g off
g Cube.010_Material
usemtl Material
f 242/446/54 243/447/54 237/448/54 236/449/54
f 236/450/55 237/451/55 241/452/55 240/453/55
f 238/454/56 244/455/56 249/456/56 248/457/56
f 238/458/57 239/459/57 235/460/57 234/461/57
f 242/462/56 244/455/56 238/454/56 234/463/56
f 245/464/58 243/465/58 235/466/58 239/467/58
f 241/468/58 237/469/58 243/465/58 245/464/58
f 236/470/56 240/471/56 244/455/56 242/462/56
f 240/472/59 241/473/59 245/474/59 244/475/59
f 234/476/54 235/477/54 243/447/54 242/446/54
f 249/475/59 246/474/59 247/478/59 248/479/59
f 245/464/58 239/467/58 247/480/58 246/481/58
f 239/459/57 238/458/57 248/482/57 247/483/57
f 244/475/55 245/474/55 246/474/55 249/475/55
g Cube.018_Cube.035
v 4.644654 0.157907 -17.529747
v 4.644654 9.363260 -17.529747
v 10.073273 0.157907 -17.529747
v 10.073273 9.363260 -17.529747
v 4.644654 0.157907 -16.394691
v 4.644654 9.363260 -16.394691
v 10.073273 0.157907 -16.394691
v 10.073273 9.363260 -16.394691
v 5.930429 0.157907 -17.529747
v 5.930429 9.363260 -17.529747
v 5.930429 0.157907 -16.394691
v 5.930429 9.363260 -16.394691
v 8.862893 9.363260 -17.529747
v 8.862893 0.157907 -16.394691
v 8.862893 0.157907 -17.529747
v 8.862893 9.363260 -16.394691
v 3.401042 9.384580 -4.331509
v 3.401042 10.519637 -4.331509
v 3.401042 9.384580 -18.201475
v 3.401042 10.519637 -18.201475
v 10.912229 9.384580 -4.331509
v 10.912229 10.519637 -4.331509
v 10.912229 9.384580 -18.201475
v 10.912229 10.519637 -18.201475
v 4.644653 0.017122 -6.079988
v 4.644653 9.363260 -6.079988
v 10.073273 0.017122 -6.079988
v 10.073273 9.363260 -6.079988
v 4.644653 0.017122 -4.944930
v 4.644653 9.363260 -4.944930
v 10.073273 0.017122 -4.944930
v 10.073273 9.363260 -4.944930
v 5.930429 0.017122 -6.079988
v 5.930429 9.363260 -6.079988
v 5.930429 0.017122 -4.944930
v 5.930429 9.363260 -4.944930
v 8.862893 9.363260 -6.079988
v 8.862893 0.017122 -4.944930
v 8.862893 0.017122 -6.079988
v 8.862893 9.363260 -4.944930
v 3.604740 10.490267 -5.372994
v 3.604740 15.682152 -5.372994
v 10.719662 10.490267 -5.372994
v 10.719662 15.682152 -5.372994
v 3.604740 10.490267 -4.638877
v 3.604740 15.682152 -4.638877
v 10.719662 10.490267 -4.638877
v 10.719662 15.682152 -4.638877
v 4.890514 10.490267 -5.372994
v 4.890514 15.682152 -5.372994
v 4.890514 10.490267 -4.638877
v 4.890514 15.682152 -4.638877
v 9.509282 15.682152 -5.372994
v 9.509282 10.490267 -4.638877
v 9.509282 10.490267 -5.372994
v 9.509282 15.682152 -4.638877
v 10.693716 10.490267 -17.943115
v 10.693716 15.682152 -17.943115
v 10.693716 10.490267 -17.208998
v 10.693716 15.682152 -17.208998
v 9.670578 15.682152 -17.943115
v 9.670578 10.490267 -17.208998
v 9.670578 10.490267 -17.943115
v 9.652785 15.682152 -17.208998
v 10.693716 14.724339 -17.943115
v 10.693716 14.724339 -17.208998
v 9.670578 14.724339 -17.208998
v 9.670578 14.724339 -17.943115
v 9.670578 14.724339 -5.288805
v 3.604740 14.802778 -5.372994
v 3.604740 14.802778 -4.638877
v 4.890514 14.802778 -4.638877
v 4.890514 14.802778 -5.372994
v 9.520960 15.682152 -5.372994
v 9.520960 15.682152 -4.638877
v 9.520960 14.802778 -4.638877
v 9.520960 14.802778 -5.372994
v 9.510191 15.682152 -5.372994
v 9.510191 15.682152 -4.638877
v 9.510191 14.802778 -4.638877
v 9.510191 14.802778 -5.372994
v 10.719662 15.682152 -5.372994
v 9.509282 15.682152 -5.372994
v 10.719662 15.682152 -17.214350
v 9.662724 15.682152 -17.214350
v 10.693716 15.682152 -5.368911
v 9.486719 15.682152 -5.368911
v 10.693716 14.724339 -5.368911
v 9.519699 14.797834 -5.368911
v -4.999425 17.418636 -18.003950
v -4.999425 18.825752 -18.003950
v -4.999428 17.418636 -12.575331
v -4.999428 18.825752 -12.575331
v -6.850274 17.418636 -18.003950
v -6.850274 18.825752 -18.003950
v -6.850277 17.418636 -12.575331
v -6.850277 18.825752 -12.575331
v 4.529004 10.249018 -18.003948
v 4.529004 11.656135 -18.003948
v 4.529002 10.249018 -12.575331
v 4.529002 11.656135 -12.575331
v 2.678156 10.249018 -18.003950
v 2.678156 11.656135 -18.003950
v 2.678154 10.249018 -12.575331
v 2.678154 11.656135 -12.575331
v 2.908456 11.617393 -18.003948
v 2.908456 13.024509 -18.003948
v 2.908455 11.617393 -12.575329
v 2.908455 13.024509 -12.575329
v 1.057607 11.617393 -18.003948
v 1.057607 13.024509 -18.003948
v 1.057606 11.617393 -12.575331
v 1.057606 13.024509 -12.575331
v 1.065079 12.692186 -18.003948
v 1.065079 14.099304 -18.003948
v 1.065077 12.692186 -12.575331
v 1.065077 14.099304 -12.575331
v -0.785770 12.692186 -18.003950
v -0.785770 14.099304 -18.003950
v -0.785771 12.692186 -12.575331
v -0.785771 14.099304 -12.575331
v -0.689403 13.886751 -18.003950
v -0.689403 15.293867 -18.003950
v -0.689404 13.886751 -12.575331
v -0.689404 15.293867 -12.575331
v -2.540251 13.886751 -18.003950
v -2.540251 15.293867 -18.003950
v -2.540253 13.886751 -12.575331
v -2.540253 15.293867 -12.575331
v -2.101034 15.057789 -18.003950
v -2.101034 16.464905 -18.003950
v -2.101035 15.057789 -12.575331
v -2.101035 16.464905 -12.575331
v -3.951882 15.057789 -18.003950
v -3.951882 16.464905 -18.003950
v -3.951884 15.057789 -12.575332
v -3.951884 16.464905 -12.575332
v -3.587793 16.247597 -18.003948
v -3.587793 17.654715 -18.003948
v -3.587794 16.247597 -12.575331
v -3.587794 17.654715 -12.575331
v -5.438642 16.247597 -18.003950
v -5.438642 17.654715 -18.003950
v -5.438643 16.247597 -12.575331
v -5.438643 17.654715 -12.575331
v -11.566851 0.100122 -4.948846
v -11.566851 1.235179 -4.948846
v -11.566851 0.100122 -10.377464
v -11.566851 1.235179 -10.377464
v -9.716003 0.100122 -4.948846
v -9.716003 1.235179 -4.948846
v -9.716003 0.100122 -10.377464
v -9.716003 1.235179 -10.377464
v -10.183393 1.300816 -4.948847
v -10.183393 2.435873 -4.948847
v -10.183395 1.300816 -10.377465
v -10.183395 2.435873 -10.377465
v -8.332548 1.300816 -4.948847
v -8.332548 2.435873 -4.948847
v -8.332547 1.300816 -10.377464
v -8.332547 2.435873 -10.377464
v -8.562849 2.404623 -4.948847
v -8.562849 3.539680 -4.948847
v -8.562848 2.404623 -10.377464
v -8.562848 3.539680 -10.377464
v -6.712000 2.404623 -4.948847
v -6.712000 3.539680 -4.948847
v -6.711999 2.404623 -10.377464
v -6.711999 3.539680 -10.377464
v -6.719471 3.271610 -4.948847
v -6.719471 4.406668 -4.948847
v -6.719470 3.271610 -10.377464
v -6.719470 4.406668 -10.377464
v -4.868624 3.271610 -4.948847
v -4.868624 4.406668 -4.948847
v -4.868623 3.271610 -10.377464
v -4.868623 4.406668 -10.377464
v -4.964991 4.235212 -4.948847
v -4.964991 5.370269 -4.948847
v -4.964990 4.235212 -10.377464
v -4.964990 5.370269 -10.377464
v -3.114141 4.235212 -4.948846
v -3.114141 5.370269 -4.948846
v -3.114141 4.235212 -10.377464
v -3.114141 5.370269 -10.377464
v -3.553360 5.179832 -4.948847
v -3.553360 6.314889 -4.948847
v -3.553359 5.179832 -10.377464
v -3.553359 6.314889 -10.377464
v -1.702510 5.179832 -4.948846
v -1.702510 6.314889 -4.948846
v -1.702509 5.179832 -10.377464
v -1.702509 6.314889 -10.377464
v -1.932811 6.283640 -4.948846
v -1.932811 7.418697 -4.948846
v -1.932810 6.283640 -10.377464
v -1.932810 7.418697 -10.377464
v -0.081962 6.283640 -4.948846
v -0.081962 7.418697 -4.948846
v -0.081962 6.283640 -10.377464
v -0.081962 7.418697 -10.377464
v -0.089433 7.150627 -4.948846
v -0.089433 8.285684 -4.948846
v -0.089433 7.150627 -10.377464
v -0.089433 8.285684 -10.377464
v 1.761415 7.150627 -4.948846
v 1.761415 8.285684 -4.948846
v 1.761415 7.150627 -10.377464
v 1.761415 8.285684 -10.377464
v 1.665048 8.114228 -4.948846
v 1.665048 9.249286 -4.948846
v 1.665048 8.114228 -10.377464
v 1.665048 9.249286 -10.377464
v 3.515897 8.114228 -4.948846
v 3.515897 9.249286 -4.948846
v 3.515897 8.114228 -10.377464
v 3.515897 9.249286 -10.377464
vn -0.0000 -0.0000 -1.0000
vn 1.0000 -0.0000 -0.0000
vn -0.0000 -0.0000 1.0000
vn -1.0000 -0.0000 -0.0000
vn -0.0000 -1.0000 -0.0000
vn -0.0000 1.0000 -0.0000
vn -0.9999 -0.0093 -0.0121
vn -0.0334 -0.9994 0.0029
vn -0.9995 -0.0275 -0.0133
vt 0.375000 0.194259
vt 0.625000 0.194259
vt 0.625000 0.250000
vt 0.375000 0.250000
vt 0.625000 0.500000
vt 0.375000 0.500000
vt 0.375000 0.690787
vt 0.625000 0.690787
vt 0.625000 0.750000
vt 0.375000 0.750000
vt 0.625000 1.000000
vt 0.375000 1.000000
vt 0.125000 0.690787
vt 0.125000 0.750000
vt 0.875000 0.690787
vt 0.875000 0.750000
vt 0.000000 0.000000
vt 0.375000 0.000000
vt 0.625000 0.000000
vt 0.625000 0.059213
vt 0.375000 0.059213
vt 0.625000 0.555741
vt 0.375000 0.555741
vt 0.125000 0.500000
vt 0.125000 0.555741
vt 0.875000 0.500000
vt 0.875000 0.555741
vt 0.564775 0.690787
vt 0.564775 0.750000
vt 0.564775 1.000000
vt 0.564775 0.000000
vt 0.564775 0.059213
vt 0.578879 0.194259
vt 0.578879 0.250000
vt 0.578879 0.500000
vt 0.625000 0.556710
vt 0.578879 0.555741
vt 4.907522 0.548675
vt 4.907520 0.500000
vt 0.625000 0.271959
vt 0.564775 0.271959
vt 0.625000 0.478041
vt 0.875000 0.478041
vt 0.564775 0.478041
vt 0.625000 0.478041
vt 0.578879 0.563961
vt 0.625000 4.532087
vt 0.578880 4.532087
s 0
g off
g Cube.018_Material.001
usemtl Material.001
f 264/484/60 262/485/60 253/486/60 252/487/60
f 252/487/61 253/486/61 257/488/61 256/489/61
f 260/490/62 261/491/62 255/492/62 254/493/62
f 254/493/63 255/492/63 251/494/63 250/495/63
f 258/496/64 260/490/64 254/493/64 250/497/64
f 261/491/65 259/498/65 251/499/65 255/492/65
f 265/500/63 262/500/63 264/500/63 263/500/63
f 250/501/60 251/502/60 259/503/60 258/504/60
f 256/489/62 257/488/62 265/505/62 263/506/62
f 252/507/64 256/489/64 263/506/64 264/508/64
f 257/488/65 253/509/65 262/510/65 265/505/65
f 258/500/61 259/500/61 261/500/61 260/500/61
f 266/501/63 267/502/63 269/486/63 268/487/63
f 268/487/60 269/486/60 273/488/60 272/489/60
f 272/489/61 273/488/61 271/492/61 270/493/61
f 270/493/62 271/492/62 267/494/62 266/495/62
f 268/507/64 272/489/64 270/493/64 266/497/64
f 273/488/65 269/509/65 267/499/65 271/492/65
f 288/484/60 286/485/60 277/486/60 276/487/60
f 276/487/61 277/486/61 281/488/61 280/489/61
f 284/490/62 285/491/62 279/492/62 278/493/62
f 278/493/63 279/492/63 275/494/63 274/495/63
f 282/496/64 284/490/64 278/493/64 274/497/64
f 285/491/65 283/498/65 275/499/65 279/492/65
f 289/500/63 286/500/63 288/500/63 287/500/63
f 274/501/60 275/502/60 283/503/60 282/504/60
f 280/489/62 281/488/62 289/505/62 287/506/62
f 276/507/64 280/489/64 287/506/64 288/508/64
f 281/488/65 277/509/65 286/510/65 289/505/65
f 282/500/61 283/500/61 285/500/61 284/500/61
f 304/484/60 302/485/60 293/486/60 292/487/60
f 292/487/61 293/486/61 297/488/61 296/489/61
f 321/511/62 301/491/62 295/492/62 320/512/62
f 320/512/63 295/492/63 291/494/63 319/513/63
f 298/496/64 300/490/64 294/493/64 290/497/64
f 301/491/65 299/498/65 291/499/65 295/492/65
f 305/500/63 302/500/63 304/500/63 303/500/63
f 319/514/60 291/502/60 299/503/60 322/515/60
f 296/489/62 297/488/62 305/505/62 303/506/62
f 292/507/64 296/489/64 303/506/64 304/508/64
f 297/488/65 293/509/65 302/510/65 305/505/65
f 317/516/60 310/485/60 307/486/60 314/517/60
f 314/517/61 307/486/61 309/488/61 315/518/61
f 316/500/63 317/500/63 312/500/63 311/500/63
f 306/507/64 308/489/64 311/506/64 312/508/64
f 309/488/65 307/509/65 310/510/65 313/519/65
f 308/489/62 315/518/62 316/520/62 311/506/62
f 313/500/66 310/500/66 317/500/66 316/500/66
f 306/487/61 314/517/61 315/518/61 308/489/61
f 312/484/60 317/516/60 314/517/60 306/487/60
f 293/509/64 302/510/64 334/521/64 333/522/64
f 298/500/61 322/500/61 321/500/61 300/500/61
f 290/501/60 319/514/60 322/515/60 298/504/60
f 294/493/63 320/512/63 319/513/63 290/495/63
f 300/490/62 321/511/62 320/512/62 294/493/62
f 326/500/61 323/500/61 324/500/61 325/500/61
f 322/515/60 299/503/60 327/523/60 330/524/60
f 299/498/65 301/491/65 328/525/65 327/526/65
f 321/500/64 322/500/64 330/500/64 329/500/64
f 301/491/62 321/511/62 329/527/62 328/528/62
f 316/520/67 315/518/67 337/518/67 338/529/67
f 313/500/68 316/500/68 338/500/68 336/500/68
f 315/518/61 309/488/61 335/530/61 337/531/61
f 339/501/61 340/502/61 342/486/61 341/487/61
f 341/487/62 342/486/62 346/488/62 345/489/62
f 345/489/63 346/488/63 344/492/63 343/493/63
f 343/493/60 344/492/60 340/494/60 339/495/60
f 341/507/64 345/489/64 343/493/64 339/497/64
f 346/488/65 342/509/65 340/499/65 344/492/65
f 347/501/61 348/502/61 350/486/61 349/487/61
f 349/487/62 350/486/62 354/488/62 353/489/62
f 353/489/63 354/488/63 352/492/63 351/493/63
f 351/493/60 352/492/60 348/494/60 347/495/60
f 349/507/64 353/489/64 351/493/64 347/497/64
f 354/488/65 350/509/65 348/499/65 352/492/65
f 355/501/61 356/502/61 358/486/61 357/487/61
f 357/487/62 358/486/62 362/488/62 361/489/62
f 361/489/63 362/488/63 360/492/63 359/493/63
f 359/493/60 360/492/60 356/494/60 355/495/60
f 357/507/64 361/489/64 359/493/64 355/497/64
f 362/488/65 358/509/65 356/499/65 360/492/65
f 363/501/61 364/502/61 366/486/61 365/487/61
f 365/487/62 366/486/62 370/488/62 369/489/62
f 369/489/63 370/488/63 368/492/63 367/493/63
f 367/493/60 368/492/60 364/494/60 363/495/60
f 365/507/64 369/489/64 367/493/64 363/497/64
f 370/488/65 366/509/65 364/499/65 368/492/65
f 371/501/61 372/502/61 374/486/61 373/487/61
f 373/487/62 374/486/62 378/488/62 377/489/62
f 377/489/63 378/488/63 376/492/63 375/493/63
f 375/493/60 376/492/60 372/494/60 371/495/60
f 373/507/64 377/489/64 375/493/64 371/497/64
f 378/488/65 374/509/65 372/499/65 376/492/65
f 379/501/61 380/502/61 382/486/61 381/487/61
f 381/487/62 382/486/62 386/488/62 385/489/62
f 385/489/63 386/488/63 384/492/63 383/493/63
f 383/493/60 384/492/60 380/494/60 379/495/60
f 381/507/64 385/489/64 383/493/64 379/497/64
f 386/488/65 382/509/65 380/499/65 384/492/65
f 387/501/61 388/502/61 390/486/61 389/487/61
f 389/487/62 390/486/62 394/488/62 393/489/62
f 393/489/63 394/488/63 392/492/63 391/493/63
f 391/493/60 392/492/60 388/494/60 387/495/60
f 389/507/64 393/489/64 391/493/64 387/497/64
f 394/488/65 390/509/65 388/499/65 392/492/65
f 395/501/63 396/502/63 398/486/63 397/487/63
f 397/487/60 398/486/60 402/488/60 401/489/60
f 401/489/61 402/488/61 400/492/61 399/493/61
f 399/493/62 400/492/62 396/494/62 395/495/62
f 397/507/64 401/489/64 399/493/64 395/497/64
f 402/488/65 398/509/65 396/499/65 400/492/65
f 403/501/63 404/502/63 406/486/63 405/487/63
f 405/487/60 406/486/60 410/488/60 409/489/60
f 409/489/61 410/488/61 408/492/61 407/493/61
f 407/493/62 408/492/62 404/494/62 403/495/62
f 405/507/64 409/489/64 407/493/64 403/497/64
f 410/488/65 406/509/65 404/499/65 408/492/65
f 411/501/63 412/502/63 414/486/63 413/487/63
f 413/487/60 414/486/60 418/488/60 417/489/60
f 417/489/61 418/488/61 416/492/61 415/493/61
f 415/493/62 416/492/62 412/494/62 411/495/62
f 413/507/64 417/489/64 415/493/64 411/497/64
f 418/488/65 414/509/65 412/499/65 416/492/65
f 419/501/63 420/502/63 422/486/63 421/487/63
f 421/487/60 422/486/60 426/488/60 425/489/60
f 425/489/61 426/488/61 424/492/61 423/493/61
f 423/493/62 424/492/62 420/494/62 419/495/62
f 421/507/64 425/489/64 423/493/64 419/497/64
f 426/488/65 422/509/65 420/499/65 424/492/65
f 427/501/63 428/502/63 430/486/63 429/487/63
f 429/487/60 430/486/60 434/488/60 433/489/60
f 433/489/61 434/488/61 432/492/61 431/493/61
f 431/493/62 432/492/62 428/494/62 427/495/62
f 429/507/64 433/489/64 431/493/64 427/497/64
f 434/488/65 430/509/65 428/499/65 432/492/65
f 435/501/63 436/502/63 438/486/63 437/487/63
f 437/487/60 438/486/60 442/488/60 441/489/60
f 441/489/61 442/488/61 440/492/61 439/493/61
f 439/493/62 440/492/62 436/494/62 435/495/62
f 437/507/64 441/489/64 439/493/64 435/497/64
f 442/488/65 438/509/65 436/499/65 440/492/65
f 443/501/63 444/502/63 446/486/63 445/487/63
f 445/487/60 446/486/60 450/488/60 449/489/60
f 449/489/61 450/488/61 448/492/61 447/493/61
f 447/493/62 448/492/62 444/494/62 443/495/62
f 445/507/64 449/489/64 447/493/64 443/497/64
f 450/488/65 446/509/65 444/499/65 448/492/65
f 451/501/63 452/502/63 454/486/63 453/487/63
f 453/487/60 454/486/60 458/488/60 457/489/60
f 457/489/61 458/488/61 456/492/61 455/493/61
f 455/493/62 456/492/62 452/494/62 451/495/62
f 453/507/64 457/489/64 455/493/64 451/497/64
f 458/488/65 454/509/65 452/499/65 456/492/65
f 459/501/63 460/502/63 462/486/63 461/487/63
f 461/487/60 462/486/60 466/488/60 465/489/60
f 465/489/61 466/488/61 464/492/61 463/493/61
f 463/493/62 464/492/62 460/494/62 459/495/62
f 461/507/64 465/489/64 463/493/64 459/497/64
f 466/488/65 462/509/65 460/499/65 464/492/65
l 332 302
l 293 331
